<?xml version="1.0" standalone="no"?>
<!DOCTYPE svg PUBLIC "-//W3C//DTD SVG 20010904//EN"
 "http://www.w3.org/TR/2001/REC-SVG-20010904/DTD/svg10.dtd">
<svg version="1.0" xmlns="http://www.w3.org/2000/svg"
 width="512.000000pt" height="512.000000pt" viewBox="0 0 512.000000 512.000000"
 preserveAspectRatio="xMidYMid meet">

<g transform="translate(0.000000,512.000000) scale(0.100000,-0.100000)"
fill="#ffffff" stroke="none">
<path d="M431 5093 c-24 -23 -302 -488 -365 -610 -15 -29 -16 -184 -16 -1872
0 -1405 3 -1846 12 -1866 25 -55 20 -55 617 -55 l550 0 3 -316 3 -316 33 -29
32 -29 371 0 c233 0 377 4 389 10 11 6 187 161 391 345 l372 335 471 0 c350 1
476 4 492 13 33 18 1246 1136 1266 1166 17 24 18 120 18 1599 0 1710 3 1614
-55 1640 -20 9 -556 12 -2290 12 l-2265 0 -29 -27z m4437 -1655 l-3 -1482
-578 -533 -579 -532 -477 -3 -478 -3 -34 -27 c-19 -14 -191 -168 -384 -342
l-350 -316 -277 0 -278 0 0 295 c0 237 -3 303 -15 331 -27 65 -21 64 -625 64
l-540 0 0 1760 0 1760 148 255 147 255 2163 0 2162 0 -2 -1482z"/>
<path d="M900 4619 c-14 -5 -33 -20 -42 -32 -16 -21 -18 -117 -18 -1535 l0
-1514 29 -29 29 -29 511 0 511 0 0 -266 0 -266 29 -29 c23 -23 38 -29 72 -29
42 0 44 1 339 295 l296 295 564 0 564 0 338 337 c185 185 342 348 348 362 7
18 9 393 8 1208 l-3 1183 -28 27 -27 28 -1748 2 c-1128 1 -1756 -2 -1772 -8z
m3380 -1276 l0 -1088 -292 -292 -293 -293 -564 0 -565 0 -223 -222 -223 -222
0 166 c0 193 -4 219 -37 253 l-26 25 -511 2 -511 3 -3 1378 -2 1377 1625 0
1625 0 0 -1087z"/>
<path d="M2071 3826 c-51 -28 -50 -13 -51 -728 l0 -668 29 -32 29 -33 236 0
236 0 27 28 28 27 0 681 0 681 -33 29 -32 29 -223 0 c-165 -1 -228 -4 -246
-14z m339 -726 l0 -540 -95 0 -95 0 0 540 0 540 95 0 95 0 0 -540z"/>
<path d="M3065 3831 c-11 -5 -29 -19 -40 -31 -20 -22 -20 -38 -23 -681 -3
-735 -4 -716 62 -744 27 -11 81 -15 224 -15 218 0 243 3 277 38 l25 25 0 674
c0 443 -4 681 -10 694 -24 43 -56 49 -282 48 -117 0 -222 -4 -233 -8z m335
-731 l0 -540 -100 0 -100 0 0 540 0 540 100 0 100 0 0 -540z"/>
</g>
</svg>
